<svg width="124" height="106" viewBox="0 0 124 106" fill="none" xmlns="http://www.w3.org/2000/svg">
<path d="M123.967 52.8965C123.967 56.623 120.738 59.5422 117.078 59.5422H110.189L110.339 92.7086C110.339 93.2676 110.296 93.8266 110.232 94.3855V97.7188C110.232 102.294 106.378 106 101.62 106H98.175C97.9382 106 97.7014 106 97.4645 105.979C97.1631 106 96.8617 106 96.5603 106H89.5632H84.3961C79.638 106 75.7842 102.294 75.7842 97.7188V92.75V79.5C75.7842 75.8355 72.7055 72.875 68.8947 72.875H55.1158C51.3051 72.875 48.2263 75.8355 48.2263 79.5V92.75V97.7188C48.2263 102.294 44.3725 106 39.6145 106H34.4474H27.5794C27.2565 106 26.9335 105.979 26.6106 105.959C26.3522 105.979 26.0939 106 25.8355 106H22.3908C17.6327 106 13.7789 102.294 13.7789 97.7188V74.5312C13.7789 74.3449 13.7789 74.1379 13.8005 73.9516V59.5422H6.88947C3.01415 59.5422 0 56.6437 0 52.8965C0 51.0332 0.645888 49.377 2.15296 47.9277L57.3549 1.65625C58.8619 0.207031 60.5843 0 62.0914 0C63.5985 0 65.3208 0.414062 66.6126 1.44922L121.599 47.9277C123.322 49.377 124.183 51.0332 123.967 52.8965Z" fill="black"/>
</svg>
