<svg width="70" height="71" viewBox="0 0 70 71" fill="none" xmlns="http://www.w3.org/2000/svg">
<circle cx="35" cy="35.5" r="35" fill="white"/>
<path fill-rule="evenodd" clip-rule="evenodd" d="M35.5 12.5C22.5201 12.5 12 23.0569 12 36.0822C12 46.4996 18.7315 55.34 28.0711 58.4609C29.2468 58.6737 29.6709 57.9479 29.6709 57.3237C29.6709 56.7633 29.6521 55.2785 29.645 53.3137C23.1068 54.737 21.7261 50.1502 21.7261 50.1502C20.6611 47.4264 19.1179 46.7006 19.1179 46.7006C16.9856 45.237 19.2804 45.2701 19.2804 45.2701C21.6413 45.4356 22.8782 47.7007 22.8782 47.7007C24.9752 51.304 28.3821 50.2637 29.7157 49.6608C29.9301 48.1357 30.5427 47.0954 31.2119 46.5067C25.9954 45.9132 20.5103 43.8893 20.5103 34.8504C20.5103 32.2803 21.4269 30.1713 22.923 28.5257C22.685 27.9275 21.8722 25.5277 23.1563 22.2837C23.1563 22.2837 25.1283 21.6477 29.6168 24.6978C31.5337 24.1745 33.5111 23.9073 35.4976 23.9033C37.4843 23.9066 39.4618 24.1737 41.3785 24.6978C45.8693 21.6454 47.839 22.2837 47.839 22.2837C49.1231 25.5277 48.3173 27.9275 48.0723 28.5257C49.5802 30.1713 50.485 32.2779 50.485 34.8504C50.485 43.913 44.9952 45.9038 39.7599 46.4878C40.5963 47.216 41.3503 48.6535 41.3503 50.8524C41.3503 54.0065 41.322 56.5505 41.322 57.3237C41.322 57.955 41.7414 58.6879 42.9406 58.4562C52.2756 55.3305 59 46.4972 59 36.0822C59 23.0569 48.4799 12.5 35.5 12.5Z" fill="#5271FF"/>
</svg>
