<svg width="70" height="71" viewBox="0 0 70 71" fill="none" xmlns="http://www.w3.org/2000/svg">
<circle cx="35" cy="35.5" r="35" fill="white"/>
<path d="M35.4522 24.439C32.6644 24.439 29.9908 25.5464 28.0196 27.5177C26.0483 29.489 24.9408 32.1626 24.9408 34.9504C24.9408 37.7382 26.0483 40.4118 28.0196 42.3831C29.9908 44.3544 32.6644 45.4618 35.4522 45.4618C38.24 45.4618 40.9137 44.3544 42.8849 42.3831C44.8562 40.4118 45.9637 37.7382 45.9637 34.9504C45.9637 32.1626 44.8562 29.489 42.8849 27.5177C40.9137 25.5464 38.24 24.439 35.4522 24.439ZM35.4522 41.7769C33.6411 41.7769 31.9042 41.0574 30.6236 39.7768C29.3429 38.4961 28.6235 36.7592 28.6235 34.9481C28.6235 33.137 29.3429 31.4001 30.6236 30.1194C31.9042 28.8388 33.6411 28.1193 35.4522 28.1193C37.2634 28.1193 39.0003 28.8388 40.2809 30.1194C41.5616 31.4001 42.281 33.137 42.281 34.9481C42.281 36.7592 41.5616 38.4961 40.2809 39.7768C39.0003 41.0574 37.2634 41.7769 35.4522 41.7769Z" fill="#5271FF"/>
<path d="M46.3796 26.5026C47.733 26.5026 48.8301 25.4055 48.8301 24.0521C48.8301 22.6987 47.733 21.6016 46.3796 21.6016C45.0262 21.6016 43.929 22.6987 43.929 24.0521C43.929 25.4055 45.0262 26.5026 46.3796 26.5026Z" fill="#5271FF"/>
<path d="M54.852 21.5607C54.3258 20.2017 53.5216 18.9675 52.4909 17.9373C51.4602 16.907 50.2258 16.1032 48.8666 15.5775C47.2761 14.9805 45.5958 14.6576 43.8973 14.6228C41.7082 14.5273 41.0149 14.5 35.4636 14.5C29.9124 14.5 29.2009 14.5 27.0299 14.6228C25.3327 14.6558 23.6536 14.9787 22.0652 15.5775C20.7057 16.1026 19.4709 16.9061 18.4402 17.9365C17.4094 18.9669 16.6054 20.2013 16.0798 21.5607C15.4826 23.151 15.1605 24.8315 15.1273 26.5299C15.0296 28.7168 15 29.4101 15 34.9636C15 40.5149 15 41.2218 15.1273 43.3973C15.1614 45.0977 15.4819 46.7753 16.0798 48.3689C16.6069 49.7277 17.4117 50.9617 18.4427 51.9919C19.4737 53.0221 20.7082 53.8259 22.0675 54.352C23.6529 54.9731 25.3327 55.319 27.0345 55.375C29.2236 55.4704 29.9169 55.5 35.4682 55.5C41.0194 55.5 41.7309 55.5 43.9019 55.375C45.6002 55.3404 47.2804 55.0184 48.8712 54.4225C50.23 53.8955 51.4641 53.0911 52.4946 52.0605C53.5252 51.03 54.3296 49.7959 54.8566 48.4371C55.4544 46.8458 55.775 45.1682 55.8091 43.4678C55.9068 41.2809 55.9364 40.5876 55.9364 35.0341C55.9364 29.4806 55.9364 28.7759 55.8091 26.6004C55.7826 24.8779 55.4588 23.1729 54.852 21.5607ZM52.0832 43.2291C52.0686 44.5392 51.8294 45.837 51.3762 47.0663C51.0349 47.9503 50.5122 48.7531 49.842 49.4229C49.1717 50.0928 48.3687 50.6149 47.4845 50.9558C46.2688 51.4069 44.9847 51.6461 43.6882 51.6628C41.5286 51.7628 40.9194 51.7878 35.3818 51.7878C29.8397 51.7878 29.2736 51.7878 27.0731 51.6628C25.7772 51.6469 24.4938 51.4078 23.2791 50.9558C22.3918 50.6171 21.5856 50.0958 20.9124 49.4258C20.2393 48.7558 19.7143 47.952 19.3714 47.0663C18.9246 45.8502 18.6856 44.5677 18.6644 43.2723C18.5667 41.1127 18.544 40.5035 18.544 34.9659C18.544 29.426 18.544 28.86 18.6644 26.6572C18.6791 25.3479 18.9183 24.0508 19.3714 22.8223C20.0648 21.0287 21.4855 19.617 23.2791 18.9305C24.4944 18.4807 25.7774 18.2417 27.0731 18.2236C29.235 18.1258 29.8419 18.0985 35.3818 18.0985C40.9217 18.0985 41.49 18.0985 43.6882 18.2236C44.9849 18.2392 46.2691 18.4783 47.4845 18.9305C48.3686 19.2721 49.1715 19.7948 49.8418 20.465C50.512 21.1352 51.0346 21.9382 51.3762 22.8223C51.8231 24.0384 52.0621 25.3209 52.0832 26.6163C52.181 28.7782 52.206 29.3851 52.206 34.925C52.206 40.4626 52.206 41.0582 52.1082 43.2314H52.0832V43.2291Z" fill="#5271FF"/>
</svg>
