<svg width="70" height="71" viewBox="0 0 70 71" fill="none" xmlns="http://www.w3.org/2000/svg">
<circle cx="35" cy="35.5" r="35" fill="white"/>
<path d="M19.8156 25.1311C22.4751 25.1311 24.6311 22.9751 24.6311 20.3156C24.6311 17.656 22.4751 15.5 19.8156 15.5C17.156 15.5 15 17.656 15 20.3156C15 22.9751 17.156 25.1311 19.8156 25.1311Z" fill="#5271FF"/>
<path d="M29.1782 28.7809V55.4976H37.4734V42.2856C37.4734 38.7994 38.1292 35.4232 42.4518 35.4232C46.715 35.4232 46.7678 39.409 46.7678 42.5057V55.4998H55.0674V40.8484C55.0674 33.6515 53.5179 28.1206 45.1061 28.1206C41.0675 28.1206 38.3603 30.3369 37.2533 32.4344H37.141V28.7809H29.1782ZM15.6602 28.7809H23.9686V55.4976H15.6602V28.7809Z" fill="#5271FF"/>
</svg>
