<svg width="38" height="38" viewBox="0 0 38 38" fill="none" xmlns="http://www.w3.org/2000/svg">
<path d="M0 19C0 24.0391 2.00178 28.8718 5.56497 32.435C9.12816 35.9982 13.9609 38 19 38C24.0391 38 28.8718 35.9982 32.435 32.435C35.9982 28.8718 38 24.0391 38 19C38 13.9609 35.9982 9.12816 32.435 5.56497C28.8718 2.00178 24.0391 0 19 0C13.9609 0 9.12816 2.00178 5.56497 5.56497C2.00178 9.12816 0 13.9609 0 19ZM17.8867 27.9805C17.1891 28.6781 16.0609 28.6781 15.3707 27.9805C14.6805 27.2828 14.673 26.1547 15.3707 25.4645L21.8277 19.0074L15.3707 12.5504C14.673 11.8527 14.673 10.7246 15.3707 10.0344C16.0684 9.34414 17.1965 9.33672 17.8867 10.0344L25.6055 17.7383C26.3031 18.4359 26.3031 19.5641 25.6055 20.2543L17.8867 27.9805Z" fill="white"/>
</svg>
