<svg width="129" height="102" viewBox="0 0 129 102" fill="none" xmlns="http://www.w3.org/2000/svg">
<path d="M45.15 20.7189V42.5782L36.9464 47.5031C34.0238 49.2591 32.25 52.4078 32.25 55.8189V102H51.6V82.6233C51.6 75.4984 57.3848 69.7056 64.5 69.7056C71.6152 69.7056 77.4 75.4984 77.4 82.6233V102H96.75V55.8189C96.75 52.4078 94.9762 49.2591 92.0536 47.5031L83.85 42.5782V20.7189C83.85 19.0033 83.1647 17.3684 81.9553 16.1573L66.7776 0.938557C65.528 -0.312853 63.472 -0.312853 62.2223 0.938557L47.0447 16.1371C45.8353 17.3482 45.15 18.9831 45.15 20.6987V20.7189ZM5.01891 65.3256C1.91484 67.0413 0 70.2909 0 73.8231V92.3117C0 97.6604 4.33359 102 9.675 102H25.8V53.8813L5.01891 65.3256ZM119.325 102C124.666 102 129 97.6604 129 92.3117V73.8231C129 70.2909 127.085 67.0413 123.981 65.3256L103.2 53.8813V102H119.325Z" fill="white"/>
</svg>
