<svg width="112" height="112" viewBox="0 0 112 112" fill="none" xmlns="http://www.w3.org/2000/svg">
<path d="M54.2512 0H57.7514C60.661 0 63.0019 2.34063 63.0019 5.25V7.59063C80.5907 10.5219 94.4824 24.4125 97.4139 42H98.0046C101.877 42 105.005 45.1281 105.005 49C105.005 52.8719 101.877 56 98.0046 56H13.998C10.1259 56 6.99749 52.8719 6.99749 49C6.99749 45.1281 10.1259 42 13.998 42H14.5887C17.5202 24.4125 31.4119 10.5219 49.0008 7.59063V5.25C49.0008 2.34063 51.3416 0 54.2512 0ZM13.998 63H27.9991V91H36.7498V63H50.7509V91H61.2517V63H75.2528V91H84.0035V63H98.0046V91.9406C98.1358 92.0062 98.2671 92.0938 98.3765 92.1813L108.877 99.1813C111.437 100.887 112.596 104.081 111.699 107.034C110.802 109.987 108.09 112 105.005 112H6.99749C3.91288 112 1.20017 109.987 0.303222 107.034C-0.593723 104.081 0.543865 100.887 3.12532 99.1813L13.6261 92.1813C13.7574 92.0938 13.8887 92.0281 14.0199 91.9406V63H13.998Z" fill="black"/>
</svg>
